<?xml version="1.0" encoding="UTF-8"?>
<svg id="Capa_1" data-name="Capa 1" xmlns="http://www.w3.org/2000/svg" viewBox="0 0 1920 1080">
  <defs>
    <style>
      .cls-1 {
        fill: #333;
      }

      .cls-1, .cls-2 {
        stroke-width: 0px;
      }

      .cls-3 {
        fill: none;
        stroke: #333;
        stroke-linecap: round;
        stroke-miterlimit: 10;
        stroke-width: 7px;
      }

      .cls-2 {
        fill: #1f8746;
      }
    </style>
  </defs>
  <g>
    <path class="cls-2" d="M654.08,641.53c0,47.32-36.44,79.67-79.98,79.67-48.47,0-87.41-38.94-87.41-86.58s39.05-86.79,86.68-86.79c20.73.1,45.96,10.57,61.14,25.34l-10.68,15.81c-13.09-12.98-33.6-22.09-50.57-22.09-35.59,0-67.21,29.52-67.21,67.73s29.83,67.32,68.78,67.32c32.98,0,58.94-22.09,58.94-51.93,0-1.26,0-2.41-.1-3.35h-60.51v-17.17h80.19c.31,2.72.74,7.22.74,12.04Z"/>
    <path class="cls-2" d="M777.38,691.15h-92.12l-12.36,27.74h-20.62l77.99-171.38h2.1l78.1,171.38h-20.73l-12.36-27.74ZM770.06,674.61l-38.63-86.79-38.74,86.79h77.37Z"/>
    <path class="cls-2" d="M1109.03,634.61c0,51.51-33.5,84.28-86.06,84.28h-47v-168.76l47-.1c52.56,0,86.06,32.87,86.06,84.59ZM1089.87,634.61c0-39.88-26.17-65.64-67-65.64h-27.84v130.86h28.16c40.62,0,66.68-25.55,66.68-65.22Z"/>
    <path class="cls-2" d="M1156.86,568.87v53.39h69.41v19.05h-69.41v58.63h80.09v18.95h-99.14v-168.76h99.14v18.74h-80.09Z"/>
    <path class="cls-2" d="M1404.99,549.71v171.8h-.94l-115.68-128.45v126.05h-19.06v-171.59h1.05l115.58,128.35v-126.15h19.06Z"/>
    <g>
      <path class="cls-2" d="M939.64,603.94c0-29.73-25.54-53.81-56.85-53.81h-49.83v18.84h19.05s31.41,0,31.41,0c19.89,0,36.64,15.08,36.64,34.55,0,18.22-16.54,33.5-36.64,33.5l-31.41-.1v-.02h-19l.05,81.99h19.06v-65.85h31.51s12.07-.07,20.52-2.2c20.52-6.18,35.49-25.02,35.49-46.9Z"/>
      <rect class="cls-2" x="879.63" y="550.07" width="18.37" height="180.52" transform="translate(-204.44 571.08) rotate(-32.15)"/>
      <polygon class="cls-2" points="951.45 721.65 939.51 703.92 929.06 721.65 951.45 721.65"/>
    </g>
  </g>
  <g>
    <path class="cls-1" d="M460.78,760.46l-5.1,4.86c-3.47-3.67-7.38-5.5-11.71-5.5-3.66,0-6.75,1.25-9.25,3.75-2.51,2.5-3.76,5.59-3.76,9.26,0,2.56.55,4.82,1.67,6.8,1.11,1.98,2.68,3.54,4.71,4.67,2.03,1.13,4.28,1.69,6.77,1.69,2.12,0,4.05-.39,5.8-1.19s3.68-2.23,5.78-4.32l4.94,5.16c-2.83,2.76-5.5,4.68-8.02,5.75-2.52,1.07-5.39,1.6-8.62,1.6-5.96,0-10.83-1.89-14.62-5.66-3.8-3.78-5.69-8.62-5.69-14.52,0-3.82.87-7.21,2.59-10.18,1.73-2.97,4.2-5.36,7.42-7.16,3.22-1.81,6.69-2.71,10.41-2.71,3.16,0,6.21.67,9.13,2,2.92,1.33,5.45,3.23,7.57,5.69Z"/>
    <path class="cls-1" d="M483.19,753.72h20.91v7.14h-13.67v6.93h13.67v7.01h-13.67v10.08h13.67v7.16h-20.91v-38.31Z"/>
    <path class="cls-1" d="M526.93,753.72h6.99l16.4,25.21v-25.21h7.29v38.31h-7.01l-16.38-25.13v25.13h-7.29v-38.31Z"/>
    <path class="cls-1" d="M578.59,753.72h21.17v7.19h-6.98v31.12h-7.4v-31.12h-6.8v-7.19Z"/>
    <path class="cls-1" d="M621.25,753.72h7.73c4.23,0,7.24.38,9.04,1.13s3.24,2.01,4.33,3.76c1.09,1.75,1.64,3.83,1.64,6.22,0,2.52-.61,4.62-1.81,6.32-1.2,1.69-3.03,2.97-5.46,3.84l9.08,17.03h-7.97l-8.62-16.23h-.66v16.23h-7.29v-38.31ZM628.55,768.7h2.29c2.32,0,3.91-.31,4.79-.91.87-.61,1.31-1.62,1.31-3.03,0-.84-.21-1.56-.65-2.18-.43-.62-1.01-1.06-1.74-1.33-.72-.27-2.06-.4-4-.4h-2v7.87Z"/>
    <path class="cls-1" d="M685.79,752.76c5.42,0,10.08,1.96,13.98,5.89,3.9,3.92,5.85,8.71,5.85,14.35s-1.93,10.32-5.78,14.19c-3.85,3.87-8.52,5.81-14.01,5.81s-10.53-1.99-14.33-5.96c-3.81-3.98-5.71-8.7-5.71-14.17,0-3.66.89-7.03,2.66-10.11,1.77-3.07,4.21-5.51,7.31-7.31,3.1-1.8,6.44-2.7,10.02-2.7ZM685.72,759.9c-3.55,0-6.52,1.23-8.94,3.7-2.42,2.46-3.63,5.6-3.63,9.4,0,4.24,1.52,7.59,4.56,10.05,2.36,1.93,5.07,2.89,8.13,2.89,3.46,0,6.41-1.25,8.84-3.75,2.44-2.5,3.65-5.58,3.65-9.25s-1.22-6.73-3.68-9.26c-2.45-2.53-5.43-3.79-8.94-3.79Z"/>
    <path class="cls-1" d="M759.46,753.72h8.64c5.57,0,9.71.69,12.41,2.07,2.71,1.38,4.94,3.62,6.69,6.73,1.75,3.11,2.63,6.74,2.63,10.89,0,2.95-.49,5.66-1.47,8.14-.98,2.47-2.33,4.53-4.06,6.16-1.73,1.63-3.6,2.76-5.61,3.39-2.01.63-5.5.94-10.46.94h-8.77v-38.31ZM766.7,760.76v24.17h3.39c3.33,0,5.75-.38,7.25-1.15,1.5-.77,2.73-2.05,3.69-3.86.96-1.81,1.43-4.03,1.43-6.67,0-4.07-1.14-7.22-3.41-9.46-2.05-2.02-5.34-3.02-9.87-3.02h-2.47Z"/>
    <path class="cls-1" d="M812.81,753.72h20.91v7.14h-13.67v6.93h13.67v7.01h-13.67v10.08h13.67v7.16h-20.91v-38.31Z"/>
    <path class="cls-1" d="M887.47,753.72h20.91v7.14h-13.67v6.93h13.67v7.01h-13.67v10.08h13.67v7.16h-20.91v-38.31Z"/>
    <path class="cls-1" d="M931.22,753.72h6.99l16.4,25.21v-25.21h7.29v38.31h-7.01l-16.38-25.13v25.13h-7.29v-38.31Z"/>
    <path class="cls-1" d="M982.87,753.72h21.17v7.19h-6.98v31.12h-7.4v-31.12h-6.8v-7.19Z"/>
    <path class="cls-1" d="M1025.55,753.72h7.73c4.23,0,7.24.38,9.04,1.13,1.8.76,3.24,2.01,4.33,3.76,1.09,1.75,1.64,3.83,1.64,6.22,0,2.52-.61,4.62-1.81,6.32-1.2,1.69-3.03,2.97-5.46,3.84l9.08,17.03h-7.97l-8.62-16.23h-.66v16.23h-7.29v-38.31ZM1032.84,768.7h2.29c2.32,0,3.91-.31,4.79-.91.87-.61,1.31-1.62,1.31-3.03,0-.84-.21-1.56-.65-2.18-.43-.62-1.01-1.06-1.74-1.33-.72-.27-2.06-.4-4-.4h-2v7.87Z"/>
    <path class="cls-1" d="M1072.02,753.72h20.91v7.14h-13.67v6.93h13.67v7.01h-13.67v10.08h13.67v7.16h-20.91v-38.31Z"/>
    <path class="cls-1" d="M1115.76,753.72h6.99l16.4,25.21v-25.21h7.29v38.31h-7.01l-16.38-25.13v25.13h-7.29v-38.31Z"/>
    <path class="cls-1" d="M1182.89,753.72h7.4l14.74,38.31h-7.58l-3-7.89h-15.63l-3.12,7.89h-7.58l14.77-38.31ZM1186.63,763.88l-5.14,13.15h10.25l-5.11-13.15Z"/>
    <path class="cls-1" d="M1230.37,753.72h7.1l8.88,26.72,8.96-26.72h7.1l6.43,38.31h-7.05l-4.11-24.2-8.14,24.2h-6.43l-8.07-24.2-4.21,24.2h-7.11l6.64-38.31Z"/>
    <path class="cls-1" d="M1290.14,753.72h7.24v38.31h-7.24v-38.31Z"/>
    <path class="cls-1" d="M1321.61,753.72h20.91v7.14h-13.67v6.93h13.67v7.01h-13.67v10.08h13.67v7.16h-20.91v-38.31Z"/>
    <path class="cls-1" d="M1365.35,753.72h6.99l16.4,25.21v-25.21h7.29v38.31h-7.01l-16.38-25.13v25.13h-7.29v-38.31Z"/>
    <path class="cls-1" d="M1417.01,753.72h21.17v7.19h-6.98v31.12h-7.4v-31.12h-6.8v-7.19Z"/>
    <path class="cls-1" d="M1477.27,752.76c5.42,0,10.08,1.96,13.98,5.89,3.9,3.92,5.85,8.71,5.85,14.35s-1.93,10.32-5.78,14.19c-3.85,3.87-8.52,5.81-14.01,5.81s-10.53-1.99-14.33-5.96c-3.81-3.98-5.71-8.7-5.71-14.17,0-3.66.89-7.03,2.66-10.11,1.77-3.07,4.21-5.51,7.31-7.31,3.1-1.8,6.44-2.7,10.02-2.7ZM1477.2,759.9c-3.55,0-6.52,1.23-8.94,3.7-2.42,2.46-3.63,5.6-3.63,9.4,0,4.24,1.52,7.59,4.56,10.05,2.36,1.93,5.07,2.89,8.13,2.89,3.46,0,6.41-1.25,8.84-3.75,2.44-2.5,3.65-5.58,3.65-9.25s-1.22-6.73-3.68-9.26c-2.45-2.53-5.43-3.79-8.94-3.79Z"/>
  </g>
  <g>
    <line class="cls-3" x1="553.54" y1="439.17" x2="685.54" y2="514.46"/>
    <line class="cls-3" x1="620.7" y1="336.58" x2="704.81" y2="419.52"/>
    <line class="cls-3" x1="718.59" y1="434.24" x2="801.74" y2="514.46"/>
    <line class="cls-3" x1="721" y1="266.65" x2="770.74" y2="350.33"/>
    <line class="cls-3" x1="781.38" y1="367.71" x2="866.01" y2="513.92"/>
    <line class="cls-3" x1="844.97" y1="232.07" x2="915.88" y2="513.84"/>
    <line class="cls-3" x1="954.94" y1="211.68" x2="954.38" y2="272.19"/>
    <line class="cls-3" x1="954.45" y1="305.73" x2="954.38" y2="341.11"/>
    <line class="cls-3" x1="955.01" y1="368.32" x2="954.87" y2="514.04"/>
    <line class="cls-3" x1="1070.48" y1="233.32" x2="1041.27" y2="343.77"/>
    <line class="cls-3" x1="1036.23" y1="365.21" x2="996.86" y2="513.98"/>
    <line class="cls-3" x1="1168.81" y1="290.23" x2="1099.04" y2="411.77"/>
    <line class="cls-3" x1="1085.18" y1="437.95" x2="1042.21" y2="513.98"/>
    <line class="cls-3" x1="1292.68" y1="339.59" x2="1114.95" y2="513.92"/>
    <line class="cls-3" x1="1339.69" y1="443.16" x2="1219.93" y2="513.97"/>
  </g>
</svg>