<svg width="631" height="345" viewBox="0 0 631 345" fill="none" xmlns="http://www.w3.org/2000/svg">
<g clip-path="url(#clip0_1_21)">
<path d="M135.929 255.795C135.929 283.535 114.541 302.498 88.985 302.498C60.5357 302.498 37.6799 279.672 37.6799 251.745C37.6799 223.818 60.6002 200.868 88.5566 200.868C100.724 200.926 115.533 207.064 124.443 215.722L118.174 224.99C110.491 217.381 98.4525 212.041 88.492 212.041C67.6025 212.041 49.0432 229.346 49.0432 251.745C49.0432 274.144 66.5519 291.208 89.4135 291.208C108.771 291.208 124.008 278.259 124.008 260.766C124.008 260.028 124.008 259.354 123.949 258.803H88.4333V248.737H135.501C135.683 250.332 135.935 252.97 135.935 255.795H135.929ZM208.3 284.883H154.23L146.975 301.144H134.873L180.649 200.68H181.881L227.722 301.144H215.554L208.3 284.883ZM204.003 275.187L181.33 224.31L158.591 275.187H204.003ZM402.961 251.739C402.961 281.934 383.298 301.144 352.448 301.144H324.862V202.216L352.448 202.157C383.298 202.157 402.961 221.426 402.961 251.745V251.739ZM391.715 251.739C391.715 228.361 376.355 213.26 352.39 213.26H336.049V289.971H352.577C376.419 289.971 391.715 274.994 391.715 251.739ZM431.035 213.202V244.499H471.775V255.666H431.035V290.036H478.043V301.144H419.853V202.216H478.043V213.202H431.035ZM576.674 201.97V302.68H576.122L508.224 227.382V301.273H497.037V200.686H497.653L565.493 275.926V201.976H576.68L576.674 201.97ZM303.538 233.76C303.538 216.332 288.547 202.216 270.17 202.216H240.922V213.26H270.54C282.214 213.26 292.045 222.1 292.045 233.514C292.045 244.194 282.337 253.152 270.54 253.152L252.104 253.093V253.081H240.952L240.981 301.144H252.168V262.543H270.663C270.663 262.543 277.747 262.502 282.707 261.253C294.751 257.63 303.538 246.586 303.538 233.76Z" fill="#1F8746"/>
<path d="M240.68 213.391L249.877 207.68L306.68 296.969L297.483 302.68L240.68 213.391Z" fill="#1F8746"/>
<path d="M310.68 302.68L303.214 292.68L296.68 302.68H310.68Z" fill="#1F8746"/>
<path d="M22.4543 325.277L19.461 328.175C17.4245 325.987 15.1296 324.896 12.5883 324.896C10.4402 324.896 8.62669 325.641 7.15941 327.132C5.68627 328.623 4.95263 330.465 4.95263 332.653C4.95263 334.18 5.27544 335.527 5.93278 336.708C6.58425 337.889 7.50569 338.819 8.69711 339.493C9.88854 340.166 11.2091 340.5 12.6705 340.5C13.9147 340.5 15.0475 340.268 16.0746 339.791C17.1017 339.314 18.2344 338.461 19.4669 337.215L22.3662 340.292C20.7053 341.937 19.1382 343.082 17.6592 343.72C16.1802 344.358 14.4958 344.674 12.6001 344.674C9.10208 344.674 6.24383 343.547 4.01945 341.299C1.78919 339.045 0.679932 336.159 0.679932 332.641C0.679932 330.364 1.19054 328.342 2.20002 326.571C3.21538 324.8 4.66505 323.375 6.5549 322.302C8.44475 321.223 10.4813 320.686 12.6646 320.686C14.5193 320.686 16.3093 321.086 18.0231 321.879C19.7303 322.666 21.2468 323.824 22.466 325.271L22.4543 325.277ZM35.6069 321.259H47.8792V325.516H39.8561V329.648H47.8792V333.828H39.8561V339.838H47.8792V344.108H35.6069V321.265V321.259ZM61.2783 321.259H65.3808L75.0061 336.291V321.259H79.2847V344.102H75.1704L65.5569 329.117V344.102H61.2783V321.259ZM91.5981 321.259H104.023V325.546H99.9263V344.102H95.5832V325.546H91.5922V321.259H91.5981ZM116.636 321.259H121.172C123.655 321.259 125.422 321.485 126.478 321.932C127.534 322.38 128.38 323.131 129.019 324.174C129.659 325.218 129.982 326.458 129.982 327.883C129.982 329.386 129.624 330.638 128.92 331.652C128.215 332.659 127.141 333.423 125.715 333.941L131.044 344.096H126.367L121.307 334.418H120.92V344.096H116.641V321.253L116.636 321.259ZM120.92 330.191H122.264C123.626 330.191 124.559 330.006 125.075 329.648C125.586 329.284 125.844 328.682 125.844 327.841C125.844 327.341 125.721 326.911 125.463 326.542C125.213 326.175 124.855 325.897 124.441 325.748C124.019 325.588 123.232 325.51 122.094 325.51H120.92V330.203V330.191ZM154.515 320.686C157.696 320.686 160.431 321.855 162.72 324.198C165.009 326.536 166.153 329.392 166.153 332.755C166.153 336.118 165.02 338.908 162.761 341.216C160.501 343.523 157.76 344.68 154.538 344.68C151.316 344.68 148.358 343.494 146.128 341.126C143.892 338.753 142.777 335.939 142.777 332.677C142.777 330.495 143.299 328.485 144.338 326.649C145.377 324.818 146.809 323.363 148.628 322.29C150.447 321.217 152.408 320.68 154.509 320.68L154.515 320.686ZM154.474 324.944C152.39 324.944 150.647 325.677 149.227 327.15C147.806 328.617 147.096 330.489 147.096 332.755C147.096 335.283 147.988 337.28 149.772 338.747C151.158 339.898 152.748 340.47 154.544 340.47C156.575 340.47 158.306 339.725 159.732 338.234C161.164 336.744 161.875 334.907 161.875 332.719C161.875 330.531 161.159 328.706 159.715 327.197C158.277 325.689 156.528 324.938 154.468 324.938L154.474 324.944ZM197.752 321.259H202.823C206.092 321.259 208.522 321.67 210.107 322.493C211.697 323.316 213.006 324.651 214.033 326.506C215.06 328.36 215.577 330.525 215.577 332.999C215.577 334.758 215.289 336.374 214.714 337.853C214.139 339.326 213.346 340.554 212.331 341.526C211.316 342.498 210.218 343.172 209.039 343.547C207.859 343.923 205.811 344.108 202.899 344.108H197.752V321.265V321.259ZM202.002 325.456V339.868H203.991C205.946 339.868 207.366 339.642 208.246 339.183C209.127 338.723 209.849 337.96 210.412 336.881C210.975 335.802 211.251 334.478 211.251 332.904C211.251 330.477 210.582 328.599 209.25 327.263C208.047 326.059 206.116 325.462 203.457 325.462H202.007L202.002 325.456ZM229.064 321.259H241.336V325.516H233.313V329.648H241.336V333.828H233.313V339.838H241.336V344.108H229.064V321.265V321.259ZM272.883 321.259H285.155V325.516H277.132V329.648H285.155V333.828H277.132V339.838H285.155V344.108H272.883V321.265V321.259ZM298.56 321.259H302.662L312.288 336.291V321.259H316.566V344.102H312.452L302.838 329.117V344.102H298.56V321.259ZM328.874 321.259H341.299V325.546H337.202V344.102H332.859V325.546H328.868V321.259H328.874ZM353.923 321.259H358.46C360.942 321.259 362.709 321.485 363.765 321.932C364.822 322.386 365.667 323.131 366.307 324.174C366.946 325.218 367.269 326.458 367.269 327.883C367.269 329.386 366.911 330.638 366.207 331.652C365.503 332.659 364.429 333.423 363.002 333.941L368.332 344.096H363.654L358.595 334.418H358.207V344.096H353.929V321.253L353.923 321.259ZM358.202 330.191H359.546C360.907 330.191 361.84 330.006 362.357 329.648C362.867 329.284 363.126 328.682 363.126 327.841C363.126 327.341 363.002 326.911 362.744 326.542C362.494 326.175 362.137 325.897 361.723 325.748C361.3 325.588 360.514 325.51 359.375 325.51H358.202V330.203V330.191ZM381.197 321.259H393.469V325.516H385.446V329.648H393.469V333.828H385.446V339.838H393.469V344.108H381.197V321.265V321.259ZM406.868 321.259H410.971L420.596 336.291V321.259H424.874V344.102H420.76L411.147 329.117V344.102H406.868V321.259ZM446.267 321.259H450.61L459.261 344.102H454.813L453.052 339.397H443.878L442.047 344.102H437.599L446.267 321.259ZM448.462 327.317L445.446 335.158H451.461L448.462 327.317ZM474.134 321.259H478.301L483.512 337.191L488.771 321.259H492.938L496.712 344.102H492.574L490.162 329.672L485.385 344.102H481.611L476.875 329.672L474.404 344.102H470.231L474.128 321.259H474.134ZM509.213 321.259H513.462V344.102H509.213V321.259ZM527.683 321.259H539.956V325.516H531.932V329.648H539.956V333.828H531.932V339.838H539.956V344.108H527.683V321.265V321.259ZM553.355 321.259H557.457L567.082 336.291V321.259H571.361V344.102H567.247L557.633 329.117V344.102H553.355V321.259ZM583.674 321.259H596.099V325.546H592.003V344.102H587.66V325.546H583.669V321.259H583.674ZM619.042 320.686C622.223 320.686 624.958 321.855 627.247 324.198C629.536 326.536 630.68 329.392 630.68 332.755C630.68 336.118 629.547 338.908 627.288 341.216C625.028 343.523 622.287 344.68 619.065 344.68C615.843 344.68 612.885 343.494 610.655 341.126C608.419 338.753 607.303 335.939 607.303 332.677C607.303 330.495 607.826 328.485 608.865 326.649C609.903 324.818 611.335 323.363 613.155 322.29C614.974 321.217 616.935 320.68 619.036 320.68L619.042 320.686ZM619 324.944C616.917 324.944 615.174 325.677 613.754 327.15C612.333 328.617 611.623 330.489 611.623 332.755C611.623 335.283 612.515 337.28 614.299 338.747C615.684 339.898 617.275 340.47 619.071 340.47C621.102 340.47 622.833 339.725 624.259 338.234C625.691 336.744 626.401 334.907 626.401 332.719C626.401 330.531 625.685 328.706 624.242 327.197C622.804 325.689 621.055 324.938 618.995 324.938L619 324.944Z" fill="#333333"/>
<path d="M76.6799 136.667L154.253 180.68M116.148 76.6946L165.577 125.18M173.676 133.785L222.541 180.68M175.092 35.8147L204.323 84.7326M210.576 94.8926L260.31 180.364M247.946 15.5998L289.618 180.318M312.572 3.68018L312.243 39.0533M312.284 58.6602L312.243 79.3427M312.613 95.2492L312.531 180.435M380.472 16.3306L363.306 80.8977M360.344 93.4312L337.208 180.4M438.258 49.5992L397.256 120.649M389.111 135.954L363.859 180.4M511.053 78.4542L406.606 180.364M538.68 138.999L468.3 180.394" stroke="#333333" stroke-width="7" stroke-miterlimit="10" stroke-linecap="round"/>
</g>
<defs>
<clipPath id="clip0_1_21">
<rect width="631" height="345" fill="white"/>
</clipPath>
</defs>
</svg>
